<mxfile host="app.diagrams.net" modified="2023-10-09T04:18:24.987Z" agent="Mozilla/5.0 (Windows NT 10.0; Win64; x64) AppleWebKit/537.36 (KHTML, like Gecko) Chrome/117.0.0.0 Safari/537.36" version="21.6.6" etag="5sEO_85jN8FoC4uVJ3ay" type="github">
  <diagram name="Page-1" id="xgVpiHfOXUu-bhRL99e_">
    <mxGraphModel>
      <root>
        <mxCell id="0" />
        <mxCell id="1" parent="0" />
      </root>
    </mxGraphModel>
  </diagram>
</mxfile>
